<svg id="Layer_1" style="enable-background:new 0 0 32 32;" version="1.1" viewBox="0 0 32 32" xml:space="preserve" xmlns="http://www.w3.org/2000/svg" xmlns:xlink="http://www.w3.org/1999/xlink"><g><g><path d="M16,12c-0.5527344,0-1-0.4477539-1-1V5c0-0.5522461,0.4472656-1,1-1s1,0.4477539,1,1v6C17,11.5522461,16.5527344,12,16,12    z"></path></g><g><path d="M16,28C9.9345703,28,5,23.0654297,5,17c0-4.3364258,2.5595703-8.28125,6.5214844-10.0498047    c0.5029297-0.2246094,1.0957031,0.0009766,1.3203125,0.5053711c0.2255859,0.5043945-0.0009766,1.0957031-0.5058594,1.3208008    C9.0947266,10.2236328,7,13.4516602,7,17c0,4.9624023,4.0371094,9,9,9s9-4.0375977,9-9    c0-3.5791016-2.1201172-6.8178711-5.4003906-8.2514648C19.09375,8.5273438,18.8623047,7.9375,19.0839844,7.4316406    c0.2207031-0.5048828,0.8095703-0.7373047,1.3164063-0.5161133C24.4091797,8.6674805,27,12.6259766,27,17    C27,23.0654297,22.0654297,28,16,28z"></path></g></g></svg>